<?xml version="1.0" encoding="UTF-8" standalone="no"?>
<svg width="75px" height="75px" viewBox="0 0 75 75" version="1.1" xmlns="http://www.w3.org/2000/svg" xmlns:xlink="http://www.w3.org/1999/xlink" xmlns:sketch="http://www.bohemiancoding.com/sketch/ns">
    <!-- Generator: Sketch 3.4.4 (17249) - http://www.bohemiancoding.com/sketch -->
    <title>Slice 1</title>
    <desc>Created with Sketch.</desc>
    <defs></defs>
    <g id="Page-1" stroke="none" stroke-width="1" fill="none" fill-rule="evenodd" sketch:type="MSPage">
        <g id="noun_216897_cc" sketch:type="MSLayerGroup" transform="translate(-14.000000, 1.000000)" fill="#000000">
            <path d="M51.188,72.269 C31.281,72.269 15.084,56.073 15.084,36.165 C15.084,16.258 31.28,0.062 51.188,0.062 C71.096,0.062 87.292,16.257 87.292,36.165 C87.292,56.073 71.096,72.269 51.188,72.269 L51.188,72.269 Z M51.188,2.062 C32.383,2.062 17.084,17.36 17.084,36.165 C17.084,54.97 32.383,70.269 51.188,70.269 C69.993,70.269 85.292,54.97 85.292,36.165 C85.292,17.361 69.993,2.062 51.188,2.062 L51.188,2.062 Z" id="Shape" sketch:type="MSShapeGroup"></path>
            <g id="Group" transform="translate(16.000000, 5.000000)" sketch:type="MSShapeGroup">
                <path d="M51.812,62.875 C51.589,62.875 51.185,62.777 51,62.625 C48.984,60.977 48.149,60.597 45.046,58.502 C42.053,56.481 39.226,54.574 37.271,53.022 L36.349,52.287 C34.766,51.021 33.27,49.826 31.539,48.647 C31.345,48.514 31.11,48.385 30.864,48.247 C29.729,47.611 27.832,46.548 28.298,44.386 C28.537,43.275 29.138,42.832 29.6,42.657 C30.857,42.173 32.235,43.183 33.057,43.784 L33.265,43.934 C33.552,44.135 33.838,44.343 34.124,44.55 C35.114,45.267 36.049,45.945 37.082,46.426 C37.299,46.527 37.523,46.609 37.748,46.691 C38.055,46.804 38.36,46.918 38.655,47.061 C38.718,47.093 38.782,47.126 38.846,47.162 C38.812,47.111 38.774,47.058 38.732,47.003 C37.705,45.669 36.342,44.673 34.9,43.618 L34.249,43.139 C33.952,42.918 33.646,42.713 33.341,42.507 C32.902,42.211 32.447,41.904 32.011,41.554 C31.889,41.456 31.751,41.356 31.61,41.254 C31.173,40.937 30.678,40.577 30.335,40.106 C29.441,38.877 29.859,37.01 30.793,36.101 C32.509,34.429 34.696,36.376 35.415,37.016 C35.829,37.386 36.237,37.762 36.645,38.139 C38.072,39.454 39.42,40.696 40.991,41.665 C41.012,41.678 41.031,41.69 41.05,41.701 C40.988,41.441 40.826,41.253 40.504,40.902 C40.305,40.685 40.097,40.456 39.898,40.181 L39.53,39.659 C39.174,39.15 38.837,38.668 38.449,38.24 C38.083,37.839 37.769,37.41 37.466,36.995 C37.046,36.42 36.65,35.876 36.181,35.51 C34.937,34.542 34.242,33.488 34.118,32.38 C34.006,31.36 34.463,30.344 35.257,29.851 C35.944,29.424 36.763,29.448 37.504,29.921 C38.708,30.69 39.566,31.945 40.324,33.052 C40.655,33.536 40.968,33.993 41.288,34.385 C41.651,34.83 42.007,35.281 42.362,35.732 C43.003,36.545 43.665,37.386 44.354,38.162 C44.375,38.187 44.4,38.213 44.426,38.239 C44.35,38.063 44.267,37.894 44.195,37.744 C44.128,37.606 44.064,37.473 44.007,37.349 C43.358,35.925 42.575,34.665 41.747,33.331 C40.828,31.851 40.579,29.724 42.206,28.553 C42.638,28.243 43.199,28.139 43.781,28.262 C44.516,28.415 45.221,28.9 45.577,29.497 C46.372,30.841 46.95,32.272 47.51,33.657 C48.038,34.953 48.745,36.131 49.432,37.216 L49.621,37.518 C49.991,38.113 50.762,39.351 51.264,39.396 C51.411,39.411 51.628,39.262 51.864,39.001 C52.262,38.564 52.613,38.095 52.985,37.598 C53.697,36.646 54.432,35.662 55.538,34.883 C56.915,33.913 58.375,33.809 59.174,34.621 C59.44,34.892 60.207,35.91 58.935,37.647 C56.172,41.427 55.708,46.085 57.723,49.804 C58.535,51.304 59.724,52.471 60.982,53.707 C61.633,54.347 61.437,53.965 62.066,54.686 C62.428,55.102 61.732,55.323 61.316,55.686 C60.9,56.048 60.679,56.478 60.316,56.061 C59.739,55.399 60.205,55.748 59.58,55.134 C58.272,53.849 56.92,52.52 55.966,50.757 C53.578,46.353 54.098,40.877 57.321,36.466 C57.425,36.324 57.498,36.204 57.548,36.107 C57.336,36.156 57.036,36.275 56.692,36.518 C55.846,37.114 55.235,37.931 54.588,38.796 C54.204,39.309 53.808,39.839 53.344,40.348 C52.649,41.111 51.883,41.46 51.084,41.387 C49.592,41.251 48.629,39.704 47.925,38.574 L47.745,38.286 C47.008,37.122 46.247,35.852 45.671,34.438 C45.102,33.028 44.576,31.728 43.859,30.517 C43.778,30.381 43.408,30.191 43.299,30.211 C42.533,30.781 43.409,32.214 43.447,32.275 C44.272,33.603 45.125,34.977 45.827,36.517 L45.994,36.868 C46.303,37.504 46.687,38.296 46.697,39.092 C46.71,40.238 46.046,40.618 45.759,40.729 C44.429,41.237 42.872,39.505 42.857,39.487 C42.13,38.668 41.449,37.804 40.791,36.969 C40.442,36.527 40.095,36.084 39.738,35.648 C39.365,35.19 39.013,34.677 38.674,34.18 C37.992,33.184 37.288,32.155 36.428,31.605 C36.357,31.56 36.313,31.548 36.302,31.547 C36.237,31.58 36.073,31.847 36.107,32.157 C36.167,32.692 36.63,33.323 37.414,33.931 C38.102,34.471 38.601,35.154 39.083,35.813 C39.367,36.202 39.636,36.569 39.93,36.892 C40.407,37.417 40.795,37.973 41.171,38.511 L41.522,39.008 C41.67,39.212 41.83,39.383 41.98,39.547 C42.473,40.084 43.086,40.752 43.086,42.026 C43.085,42.884 42.809,43.472 42.266,43.774 C41.392,44.26 40.413,43.656 39.943,43.365 C38.211,42.296 36.728,40.929 35.294,39.608 C34.894,39.238 34.493,38.87 34.088,38.507 C32.771,37.336 32.334,37.393 32.192,37.533 C31.857,37.859 31.729,38.614 31.956,38.926 C32.114,39.142 32.474,39.404 32.791,39.634 C32.959,39.757 33.123,39.876 33.269,39.993 C33.652,40.3 34.059,40.573 34.465,40.847 C34.795,41.07 35.126,41.293 35.446,41.531 L36.087,42.001 C37.579,43.092 39.122,44.22 40.323,45.781 C40.716,46.291 41.325,47.287 41.007,48.236 C40.903,48.549 40.601,49.11 39.761,49.34 C39.006,49.546 38.368,49.183 37.987,48.966 C37.917,48.926 37.849,48.887 37.783,48.854 C37.553,48.742 37.308,48.654 37.064,48.564 C36.788,48.462 36.512,48.359 36.244,48.235 C35.037,47.672 33.98,46.906 32.957,46.165 C32.68,45.964 32.401,45.762 32.122,45.566 L31.884,45.394 C31.102,44.822 30.58,44.531 30.332,44.525 C30.334,44.552 30.295,44.639 30.26,44.802 C30.127,45.421 30.619,45.809 31.849,46.497 C32.15,46.666 32.435,46.828 32.672,46.989 C34.465,48.211 35.99,49.429 37.605,50.719 L38.522,51.451 C40.417,52.954 43.342,54.93 46.171,56.84 C49.313,58.96 51.045,60.039 53.132,61.746 C53.56,62.095 52.794,62.069 52.444,62.496 C52.239,62.742 52.103,62.875 51.812,62.875 L51.812,62.875 Z" id="Shape"></path>
                <path d="M43.575,33.028 C43.37,33.028 43.153,33.005 42.924,32.956 C41.815,32.717 41.372,32.116 41.196,31.655 C40.717,30.397 41.721,29.02 42.322,28.197 L42.472,27.989 C42.675,27.699 42.884,27.411 43.093,27.123 C43.809,26.135 44.486,25.202 44.965,24.172 C45.067,23.953 45.149,23.728 45.232,23.503 C45.344,23.198 45.459,22.893 45.601,22.599 C45.632,22.536 45.665,22.473 45.701,22.409 C45.65,22.443 45.597,22.48 45.544,22.522 C44.211,23.547 43.216,24.907 42.163,26.347 L41.679,27.006 C41.462,27.298 41.259,27.6 41.055,27.902 C40.757,28.345 40.449,28.803 40.094,29.243 C39.996,29.365 39.897,29.502 39.794,29.644 C39.478,30.081 39.118,30.576 38.647,30.92 C37.419,31.814 35.551,31.396 34.642,30.462 C32.969,28.742 34.916,26.558 35.557,25.839 C35.923,25.429 36.296,25.025 36.669,24.62 C37.988,23.189 39.234,21.837 40.204,20.264 C40.218,20.243 40.229,20.223 40.241,20.203 C39.981,20.265 39.795,20.426 39.443,20.748 C39.225,20.948 38.995,21.157 38.718,21.356 C38.539,21.485 38.359,21.612 38.178,21.739 C37.677,22.09 37.202,22.422 36.782,22.805 C36.382,23.171 35.954,23.483 35.54,23.785 C34.964,24.206 34.419,24.604 34.05,25.075 C33.079,26.321 32.026,27.014 30.919,27.137 C29.91,27.25 28.885,26.793 28.392,26 C27.963,25.312 27.989,24.493 28.461,23.753 C29.232,22.547 30.486,21.689 31.593,20.931 C32.076,20.6 32.533,20.287 32.926,19.967 C33.367,19.607 33.814,19.256 34.261,18.904 C35.077,18.26 35.922,17.595 36.703,16.902 C36.727,16.88 36.754,16.856 36.779,16.83 C36.602,16.907 36.432,16.989 36.281,17.063 L35.89,17.249 C34.465,17.899 33.204,18.681 31.87,19.509 C30.389,20.43 28.263,20.678 27.093,19.051 C26.782,18.616 26.68,18.055 26.803,17.469 C26.958,16.734 27.444,16.031 28.039,15.678 C29.36,14.897 30.768,14.325 32.131,13.773 L32.227,13.734 C33.487,13.221 34.668,12.513 35.756,11.824 L36.058,11.636 C36.653,11.265 37.89,10.494 37.936,9.993 C37.949,9.854 37.801,9.63 37.541,9.394 C37.104,8.996 36.635,8.645 36.139,8.273 C35.187,7.561 34.202,6.825 33.423,5.719 C32.454,4.343 32.349,2.883 33.161,2.084 C33.432,1.818 34.448,1.051 36.187,2.322 C39.965,5.085 44.625,5.55 48.344,3.535 C49.845,2.723 51.013,1.534 52.249,0.275 C52.889,-0.376 51.903,0.838 52.623,0.21 C53.038,-0.153 53.093,0.502 53.456,0.918 C53.819,1.334 54.331,0.93 53.915,1.293 C53.254,1.87 54.289,1.053 53.676,1.676 C52.391,2.985 51.062,4.338 49.296,5.293 C44.892,7.68 39.416,7.161 35.006,3.936 C34.863,3.832 34.743,3.76 34.647,3.71 C34.696,3.921 34.815,4.222 35.057,4.567 C35.654,5.413 36.47,6.025 37.335,6.671 C37.849,7.054 38.379,7.451 38.888,7.915 C39.651,8.61 40,9.37 39.926,10.174 C39.79,11.666 38.243,12.63 37.114,13.333 L36.827,13.513 C35.659,14.252 34.386,15.014 32.979,15.587 L32.882,15.626 C31.528,16.176 30.249,16.694 29.057,17.4 C28.92,17.481 28.735,17.82 28.751,17.958 C29.321,18.725 30.753,17.847 30.814,17.81 C32.143,16.985 33.517,16.132 35.057,15.43 L35.405,15.264 C36.042,14.954 36.834,14.569 37.632,14.559 C38.764,14.573 39.158,15.211 39.269,15.497 C39.781,16.825 38.046,18.382 38.029,18.398 C37.205,19.13 36.337,19.814 35.497,20.475 C35.059,20.82 34.621,21.165 34.188,21.518 C33.731,21.891 33.218,22.242 32.721,22.581 C31.725,23.263 30.696,23.968 30.145,24.83 C30.1,24.9 30.088,24.944 30.088,24.955 C30.12,25.02 30.389,25.184 30.697,25.15 C31.232,25.091 31.862,24.628 32.471,23.845 C33.012,23.154 33.697,22.654 34.358,22.171 C34.746,21.888 35.112,21.621 35.433,21.328 C35.949,20.858 36.498,20.474 37.029,20.101 L37.546,19.736 C37.754,19.586 37.926,19.425 38.09,19.275 C38.627,18.783 39.294,18.171 40.564,18.171 L40.567,18.171 C41.423,18.171 42.011,18.447 42.314,18.99 C42.801,19.865 42.196,20.844 41.905,21.315 C40.835,23.051 39.464,24.538 38.137,25.976 C37.772,26.373 37.406,26.77 37.046,27.171 C35.874,28.486 35.933,28.923 36.072,29.066 C36.397,29.4 37.154,29.528 37.467,29.302 C37.684,29.144 37.944,28.785 38.174,28.469 C38.296,28.3 38.415,28.136 38.532,27.99 C38.843,27.603 39.118,27.193 39.394,26.783 C39.614,26.456 39.834,26.13 40.069,25.813 L40.547,25.164 C41.637,23.675 42.764,22.135 44.321,20.935 C44.83,20.543 45.824,19.932 46.775,20.251 C47.088,20.356 47.649,20.657 47.879,21.496 C48.089,22.248 47.725,22.889 47.507,23.271 C47.467,23.341 47.428,23.409 47.396,23.475 C47.285,23.705 47.196,23.949 47.107,24.192 C47.004,24.469 46.901,24.746 46.776,25.015 C46.216,26.218 45.451,27.274 44.711,28.295 C44.508,28.575 44.306,28.855 44.107,29.136 L43.935,29.374 C43.364,30.157 43.072,30.679 43.067,30.926 L43.069,30.926 C43.098,30.926 43.184,30.965 43.343,30.999 C43.966,31.132 44.349,30.64 45.037,29.413 C45.206,29.11 45.369,28.824 45.531,28.586 C46.753,26.795 47.969,25.271 49.259,23.657 L49.992,22.737 C51.497,20.842 53.471,17.917 55.382,15.088 C57.503,11.947 59.082,9.419 60.788,7.333 C61.139,6.906 61.194,7.356 61.622,7.708 C62.05,8.058 62.972,7.947 62.622,8.375 C60.974,10.39 59.135,13.104 57.04,16.208 C55.019,19.201 53.111,22.027 51.559,23.982 L50.822,24.906 C49.557,26.489 48.363,27.985 47.184,29.714 C47.05,29.909 46.92,30.145 46.782,30.392 C46.216,31.406 45.306,33.028 43.575,33.028 L43.575,33.028 Z" id="Shape"></path>
                <path d="M1.255,21.607 C2.248,21.419 3.255,21.224 4.254,21.03 C8.108,20.282 11.746,19.576 14.44,19.267 L15.706,19.125 C17.904,18.879 19.979,18.647 22.225,18.222 C22.479,18.174 22.762,18.093 23.061,18.009 C24.398,17.631 26.636,17.002 27.908,18.969 C28.556,19.975 28.44,20.747 28.229,21.217 C27.647,22.512 25.841,22.792 24.762,22.959 L24.491,23.002 C24.113,23.068 23.73,23.13 23.347,23.191 C22.032,23.401 20.79,23.6 19.619,24.025 C19.373,24.115 19.136,24.226 18.896,24.337 C18.577,24.485 18.257,24.631 17.923,24.747 C17.804,24.788 17.682,24.822 17.558,24.856 C17.511,24.869 17.454,24.884 17.396,24.901 C17.536,24.948 17.715,24.993 17.925,25.02 C19.753,25.259 21.572,24.977 23.499,24.677 L24.371,24.543 C24.768,24.484 25.162,24.407 25.556,24.331 C26.121,24.221 26.705,24.108 27.31,24.041 C27.478,24.022 27.66,23.993 27.847,23.963 C28.422,23.872 29.076,23.768 29.69,23.865 C31.278,24.114 32.363,25.827 32.344,27.21 C32.312,29.741 29.192,29.917 28.166,29.974 C27.567,30.008 26.966,30.033 26.364,30.057 C24.249,30.144 22.25,30.226 20.288,30.689 C20.19,30.712 20.105,30.734 20.032,30.755 C20.374,31.038 20.678,31.051 21.264,31.076 C21.58,31.09 21.914,31.105 22.276,31.163 C22.51,31.201 22.741,31.242 22.97,31.283 C23.634,31.401 24.262,31.512 24.891,31.541 C25.476,31.568 26.041,31.656 26.588,31.741 C27.361,31.861 28.095,31.974 28.752,31.894 C30.44,31.692 31.762,31.961 32.685,32.7 C33.529,33.377 33.946,34.474 33.722,35.431 C33.531,36.255 32.906,36.842 32.007,37.041 C30.507,37.371 28.963,37.081 27.47,36.801 C26.839,36.683 26.242,36.571 25.689,36.515 C25.061,36.452 24.436,36.377 23.81,36.303 C22.697,36.171 21.545,36.034 20.42,35.967 C20.277,35.961 20.092,35.968 19.908,35.989 C20.202,36.123 20.544,36.24 20.845,36.344 L21.273,36.495 C22.904,37.103 24.536,37.484 26.114,37.851 C27.925,38.276 29.716,39.686 29.375,41.78 C29.283,42.329 28.944,42.818 28.42,43.16 C27.756,43.593 26.869,43.757 26.158,43.576 C24.555,43.164 23.043,42.525 21.58,41.908 L21.457,41.856 C20.075,41.274 18.622,40.911 17.257,40.606 L16.881,40.519 C16.067,40.33 14.549,39.976 14.094,40.356 C13.903,40.515 13.893,40.947 13.905,41.191 C13.935,41.837 14.026,42.47 14.123,43.14 C14.307,44.413 14.496,45.729 14.248,47.166 C13.943,48.918 12.943,50.091 11.757,50.091 L11.74,50.091 C11.344,50.087 10.03,49.901 9.682,47.654 C8.897,42.586 5.647,38.618 1.201,37.297 C0.913,37.212 0.624,37.14 0.335,37.08 L0.218,35.025 C0.734,35.11 1.251,35.225 1.772,35.38 C6.965,36.922 10.754,41.508 11.66,47.348 C11.705,47.641 11.768,47.842 11.823,47.969 C11.968,47.794 12.172,47.439 12.278,46.825 C12.472,45.701 12.313,44.596 12.144,43.426 C12.045,42.739 11.943,42.028 11.908,41.284 C11.857,40.191 12.163,39.362 12.816,38.819 C14.034,37.804 15.942,38.246 17.335,38.571 L17.695,38.654 C19.151,38.98 20.708,39.37 22.235,40.013 L22.359,40.066 C23.819,40.682 25.199,41.265 26.657,41.639 C26.88,41.697 27.332,41.542 27.418,41.41 C27.597,40.267 25.74,39.818 25.661,39.799 C24.099,39.435 22.327,39.022 20.579,38.37 L20.195,38.235 C19.47,37.985 18.569,37.674 17.958,37.076 C17.14,36.275 17.283,35.555 17.441,35.198 C18.042,33.84 20.516,33.971 20.541,33.97 C21.726,34.04 22.906,34.18 24.049,34.316 C24.662,34.389 25.277,34.462 25.892,34.524 C26.531,34.588 27.197,34.713 27.842,34.834 C29.137,35.077 30.476,35.328 31.579,35.086 C31.761,35.045 31.773,34.993 31.777,34.975 C31.812,34.822 31.712,34.479 31.436,34.259 C30.957,33.875 30.113,33.742 28.997,33.878 C28.067,33.992 27.16,33.852 26.283,33.716 C25.766,33.635 25.278,33.56 24.802,33.538 C24.042,33.503 23.321,33.375 22.623,33.25 L21.959,33.135 C21.684,33.091 21.426,33.082 21.182,33.072 C20.405,33.039 19.439,32.998 18.483,32.041 C17.848,31.406 17.616,30.771 17.792,30.154 C18.075,29.156 19.262,28.876 19.831,28.741 C21.979,28.234 24.169,28.144 26.285,28.057 C26.877,28.033 27.468,28.008 28.056,27.975 C29.571,27.89 30.34,27.623 30.346,27.182 C30.354,26.626 29.84,25.911 29.382,25.839 C29.083,25.792 28.592,25.869 28.162,25.937 C27.942,25.972 27.728,26.005 27.53,26.027 C27.008,26.084 26.489,26.185 25.939,26.292 C25.516,26.374 25.093,26.456 24.667,26.52 L23.808,26.651 C21.829,26.958 19.779,27.276 17.669,27.001 C16.993,26.913 15.789,26.626 15.321,25.686 C15.169,25.379 14.979,24.748 15.427,23.961 C15.83,23.253 16.552,23.055 17.03,22.924 C17.115,22.901 17.199,22.878 17.277,22.852 C17.541,22.761 17.798,22.64 18.056,22.519 C18.346,22.385 18.636,22.252 18.936,22.143 C20.287,21.653 21.681,21.43 23.031,21.214 C23.404,21.154 23.776,21.094 24.146,21.029 L24.457,20.979 C25.896,20.756 26.312,20.534 26.409,20.386 C26.398,20.39 26.375,20.278 26.227,20.049 C25.823,19.424 25.122,19.502 23.603,19.93 C23.244,20.031 22.903,20.126 22.597,20.183 C20.278,20.623 18.165,20.859 15.928,21.108 L14.668,21.25 C12.053,21.55 8.282,22.282 4.636,22.989 C3.366,23.236 2.083,23.485 0.83,23.719" id="Shape"></path>
            </g>
        </g>
    </g>
</svg>