<?xml version="1.0" encoding="UTF-8" standalone="no"?>
<svg width="30px" height="30px" viewBox="0 0 30 30" version="1.1" xmlns="http://www.w3.org/2000/svg" xmlns:xlink="http://www.w3.org/1999/xlink" xmlns:sketch="http://www.bohemiancoding.com/sketch/ns">
    <!-- Generator: Sketch 3.4.4 (17249) - http://www.bohemiancoding.com/sketch -->
    <title>Slice 1</title>
    <desc>Created with Sketch.</desc>
    <defs></defs>
    <g id="Page-1" stroke="none" stroke-width="1" fill="none" fill-rule="evenodd" sketch:type="MSPage">
        <g id="noun_254394_cc" sketch:type="MSLayerGroup" transform="translate(0.000000, 3.000000)" fill="#000000">
            <g id="Group" sketch:type="MSShapeGroup">
                <g id="Shape">
                    <g>
                        <path d="M9.89573595,16.1951941 C11.0399357,19.2789298 14.5333336,21.5 18.6363636,21.5 C21.0452674,21.5 23.3662109,20.6841431 24.8084545,19.5275126 L28.8911669,20.4380116 C29.3373499,20.5375164 29.6720614,20.035522 29.408652,19.6618966 L27.2198538,16.5499992 C27.5836316,15.7604739 27.7727273,14.890967 27.7727273,14 C27.7727273,10.5372974 24.9353869,7.65160661 21.093507,6.77413826 C21.2285046,7.13385892 21.3316576,7.50496534 21.4002712,7.88512737 C24.5420359,8.7931324 26.7727273,11.2032122 26.7727273,14 C26.7727273,14.8296001 26.577733,15.6374518 26.2017858,16.3932743 C26.1199639,16.5577732 26.1349485,16.7538946 26.2408118,16.9040534 L27.843638,19.1798331 L24.8024409,18.5016058 C24.654765,18.4686721 24.5001188,18.5043806 24.3818323,18.5987261 C22.8668783,19.8070555 20.8220874,20.5 18.6363636,20.5 C15.2001244,20.5 12.2805808,18.7986193 11.0823265,16.4140038 C10.6790655,16.3630172 10.2828092,16.28974 9.89573595,16.1951941 L9.89573595,16.1951941 Z"></path>
                        <path d="M3.03493207,11.9278645 L0.586886329,15.5183316 C0.330524659,15.8943287 0.668911247,16.3894704 1.11235089,16.2872138 L5.63822358,15.2460664 C7.4796555,16.6855744 9.89289283,17.5 12.4545455,17.5 C17.9848772,17.5 22.5,13.715897 22.5,9 C22.5,4.28410295 17.9848772,0.5 12.4545455,0.5 C6.92421375,0.5 2.40909091,4.28410295 2.40909091,9 C2.40909091,10.11358 2.66400157,11.1881714 3.03493207,11.9278645 L3.03493207,11.9278645 Z M12.4545455,1.5 C17.4678317,1.5 21.5,4.87934105 21.5,9 C21.5,13.120659 17.4678317,16.5 12.4545455,16.5 C10.0301569,16.5 7.76103951,15.7048799 6.0778263,14.3166823 C5.9579073,14.2177814 5.7988119,14.1802782 5.64734575,14.2152061 L2.14275978,15.0200005 L4.01107474,12.2713255 C4.11166349,12.1237953 4.12594357,11.9338206 4.04853971,11.772911 C3.6276388,10.8979289 3.40909091,9.96169876 3.40909091,9 C3.40909091,4.87934105 7.44125921,1.5 12.4545455,1.5 L12.4545455,1.5 Z"></path>
                    </g>
                </g>
            </g>
        </g>
    </g>
</svg>