<?xml version="1.0" encoding="UTF-8" standalone="no"?>
<svg width="113px" height="42px" viewBox="0 0 113 42" version="1.1" xmlns="http://www.w3.org/2000/svg" xmlns:xlink="http://www.w3.org/1999/xlink" xmlns:sketch="http://www.bohemiancoding.com/sketch/ns">
    <!-- Generator: Sketch 3.4.4 (17249) - http://www.bohemiancoding.com/sketch -->
    <title>Slice 1</title>
    <desc>Created with Sketch.</desc>
    <defs></defs>
    <g id="Page-1" stroke="none" stroke-width="1" fill="none" fill-rule="evenodd" sketch:type="MSPage">
        <path d="M101.523379,19.539675 L97.9134054,19.539675 C97.4918303,10.24805 89.6281267,2.84065 79.9869715,2.84065 C71.3779156,2.84065 64.1864532,8.748625 62.4450825,16.6287 C61.6740939,16.180075 57.8875146,14.021125 56.3702242,14.021125 C54.8557824,14.021125 51.2515058,15.89425 50.5099515,16.289225 C48.6394496,8.580275 41.5343911,2.84065 33.0487694,2.84065 C23.4076142,2.84065 15.5439106,10.24805 15.1223355,19.539675 L11.425958,19.539675 C10.9265246,19.539675 10.5201414,19.93465 10.5201414,20.422125 L10.5201414,21.147325 C10.5201414,21.6348 10.9255751,22.02885 11.425958,22.02885 L15.1897496,22.02885 C16.0689804,30.8848 23.728543,37.80935 33.0506684,37.80935 C42.9624291,37.80935 50.9970415,29.982 50.9970415,20.325925 C50.9970415,19.8477 50.9714052,19.37595 50.9334255,18.9079 C51.7044141,18.468525 54.346854,17.051425 56.3721232,17.051425 C58.4610085,17.051425 61.3664581,18.5453 62.1032649,18.942125 C62.0662346,19.399075 62.0424973,19.859725 62.0424973,20.325925 C62.0424973,29.982 70.0771098,37.80935 79.9888705,37.80935 C89.3100464,37.80935 96.969609,30.885725 97.8497893,22.02885 L101.525278,22.02885 C102.024711,22.02885 102.430145,21.6348 102.430145,21.147325 L102.430145,20.422125 C102.428246,19.93465 102.023762,19.539675 101.523379,19.539675 L101.523379,19.539675 Z M33.0506684,36.383 C23.9469264,36.383 16.5674644,29.1939 16.5674644,20.325 C16.5674644,11.4561 23.9469264,4.267 33.0506684,4.267 C42.1544103,4.267 49.5338723,11.4561 49.5338723,20.325 C49.5338723,29.1939 42.1534608,36.383 33.0506684,36.383 L33.0506684,36.383 Z M79.987921,36.383 C70.8841791,36.383 63.504717,29.1939 63.504717,20.325 C63.504717,11.4561 70.8841791,4.267 79.987921,4.267 C89.0916629,4.267 96.471125,11.4561 96.471125,20.325 C96.471125,29.1939 89.0916629,36.383 79.987921,36.383 L79.987921,36.383 Z" id="Shape" fill="#000000" sketch:type="MSShapeGroup"></path>
    </g>
</svg>