<?xml version="1.0" encoding="UTF-8" standalone="no"?>
<svg width="74px" height="74px" viewBox="0 0 74 74" version="1.1" xmlns="http://www.w3.org/2000/svg" xmlns:xlink="http://www.w3.org/1999/xlink" xmlns:sketch="http://www.bohemiancoding.com/sketch/ns">
    <!-- Generator: Sketch 3.4.4 (17249) - http://www.bohemiancoding.com/sketch -->
    <title>Slice 1</title>
    <desc>Created with Sketch.</desc>
    <defs></defs>
    <g id="Page-1" stroke="none" stroke-width="1" fill="none" fill-rule="evenodd" sketch:type="MSPage">
        <g id="noun_306685_cc" sketch:type="MSLayerGroup" transform="translate(-13.000000, 0.000000)" fill="#000000">
            <path d="M50,73.5 C29.8416066,73.5 13.5,57.1583934 13.5,37 C13.5,16.8416066 29.8416066,0.5 50,0.5 C70.1583934,0.5 86.5,16.8416066 86.5,37 C86.4779548,57.1492549 70.1492549,73.4779548 50,73.5 L50,73.5 Z M50,3.5 C31.4984609,3.5 16.5,18.4984609 16.5,37 C16.5,55.5015391 31.4984609,70.5 50,70.5 C68.5015391,70.5 83.5,55.5015391 83.5,37 C83.477959,18.5075983 68.4924017,3.52204103 50,3.5 L50,3.5 Z" id="Shape" sketch:type="MSShapeGroup"></path>
            <circle id="Oval" sketch:type="MSShapeGroup" cx="32.37" cy="39.57" r="3.07"></circle>
            <circle id="Oval" sketch:type="MSShapeGroup" cx="67.63" cy="39.57" r="3.07"></circle>
            <path d="M65,47.07 L35,47.07 C34.4477153,47.07 34,47.5177153 34,48.07 C34,56.906556 41.163444,64.07 50,64.07 C58.836556,64.07 66,56.906556 66,48.07 C66,47.5177153 65.5522847,47.07 65,47.07 L65,47.07 Z M50,62.07 C45.488841,62.0657415 41.2561381,59.8879657 38.63,56.22 C40.28,54 43,52.05 50,52.05 C57,52.05 59.72,54 61.38,56.21 C58.7539773,59.8846162 54.5165018,62.0666555 50,62.07 L50,62.07 Z" id="Shape" sketch:type="MSShapeGroup"></path>
        </g>
    </g>
</svg>