<?xml version="1.0" encoding="UTF-8" standalone="no"?>
<svg width="86px" height="86px" viewBox="0 0 86 86" version="1.1" xmlns="http://www.w3.org/2000/svg" xmlns:xlink="http://www.w3.org/1999/xlink" xmlns:sketch="http://www.bohemiancoding.com/sketch/ns">
    <!-- Generator: Sketch 3.4.4 (17249) - http://www.bohemiancoding.com/sketch -->
    <title>Slice 1</title>
    <desc>Created with Sketch.</desc>
    <defs></defs>
    <g id="Page-1" stroke="none" stroke-width="1" fill="none" fill-rule="evenodd" sketch:type="MSPage">
        <g id="noun_285007_cc" sketch:type="MSLayerGroup" transform="translate(-7.000000, -1.000000)" fill="#000000">
            <g id="Group" transform="translate(8.000000, 0.637820)" sketch:type="MSShapeGroup">
                <path d="M42,0.3621 C37.593567,0.3621 33.96875,3.9869 33.96875,8.3933 C33.96875,12.7998 37.593567,16.3933 42,16.3933 C46.406433,16.3933 50.03125,12.7998 50.03125,8.3933 C50.03125,3.9869 46.406433,0.3621 42,0.3621 L42,0.3621 Z M42,2.3933 C45.325554,2.3933 47.96875,5.0678 47.96875,8.3933 C47.96875,11.7189 45.325554,14.3621 42,14.3621 C38.674446,14.3621 36.03125,11.7189 36.03125,8.3933 C36.03125,5.0678 38.674446,2.3933 42,2.3933 L42,2.3933 Z M42,20.3933 C31.510041,20.3933 22.9375,27.9933 22.9375,37.3621 C22.9304,37.8722 23.442509,38.3392 24,38.3308 L60,38.3308 C60.557491,38.3408 61.069615,37.8722 61.0625,37.3621 C61.0625,27.9933 52.489958,20.3933 42,20.3933 L42,20.3933 Z M42,22.3308 C51.016369,22.3308 58.271435,28.5496 58.84375,36.3933 L25.15625,36.3933 C25.728565,28.5496 32.98363,22.3308 42,22.3308 L42,22.3308 Z M41.875,44.3308 C41.383772,44.3928 40.980739,44.8674 41,45.3621 L41,56.8308 L31.4375,63.5183 C31.007554,63.8144 30.883854,64.4735 31.17718,64.9054 C31.470505,65.3372 32.128784,65.4651 32.5625,65.1746 L42,58.5496 L51.4375,65.1746 C51.871216,65.4651 52.529495,65.3372 52.82282,64.9054 C53.116146,64.4735 52.992446,63.8144 52.5625,63.5183 L43,56.8308 L43,45.3621 C43.02261,44.7838 42.449092,44.2581 41.875,44.3308 L41.875,44.3308 Z M19,48.3308 C14.593567,48.3308 10.96875,51.9557 10.96875,56.3621 C10.96875,60.7685 14.593567,64.3933 19,64.3933 C23.406433,64.3933 27.03125,60.7685 27.03125,56.3621 C27.03125,51.9557 23.406433,48.3308 19,48.3308 L19,48.3308 Z M65,48.3308 C60.593567,48.3308 56.96875,51.9557 56.96875,56.3621 C56.96875,60.7685 60.593567,64.3933 65,64.3933 C69.406433,64.3933 73.03125,60.7685 73.03125,56.3621 C73.03125,51.9557 69.406433,48.3308 65,48.3308 L65,48.3308 Z M19,50.3933 C22.325554,50.3933 24.96875,53.0365 24.96875,56.3621 C24.96875,59.6877 22.325554,62.3308 19,62.3308 C15.674446,62.3308 13.03125,59.6877 13.03125,56.3621 C13.03125,53.0365 15.674446,50.3933 19,50.3933 L19,50.3933 Z M65,50.3933 C68.325554,50.3933 70.96875,53.0365 70.96875,56.3621 C70.96875,59.6877 68.325554,62.3308 65,62.3308 C61.674446,62.3308 59.03125,59.6877 59.03125,56.3621 C59.03125,53.0365 61.674446,50.3933 65,50.3933 L65,50.3933 Z M19.0625,68.4246 C8.572542,68.4246 1.99999999e-07,76.0245 1.99999999e-07,85.3933 C-0.0071198,85.9035 0.5050091,86.3704 1.0625003,86.3621 L37.0625,86.3621 C37.619991,86.3721 38.132115,85.9035 38.125,85.3933 C38.125,76.0245 29.552459,68.4246 19.0625,68.4246 L19.0625,68.4246 Z M64.9375,68.4246 C54.447541,68.4246 45.875,76.0245 45.875,85.3933 C45.8679,85.9035 46.380009,86.3704 46.9375,86.3621 L82.9375,86.3621 C83.494991,86.3721 84.007115,85.9035 84,85.3933 C84,76.0245 75.427458,68.4246 64.9375,68.4246 L64.9375,68.4246 Z M19.0625,70.3621 C28.07887,70.3621 35.333935,76.5808 35.90625,84.4246 L2.21875,84.4246 C2.791065,76.5808 10.046131,70.3621 19.0625,70.3621 L19.0625,70.3621 Z M64.9375,70.3621 C73.953869,70.3621 81.208935,76.5808 81.78125,84.4246 L48.09375,84.4246 C48.666065,76.5808 55.92113,70.3621 64.9375,70.3621 L64.9375,70.3621 Z" id="Shape"></path>
            </g>
        </g>
    </g>
</svg>